<svg xmlns="http://www.w3.org/2000/svg" viewBox="0 0 512 512">
  <defs>
    <linearGradient id="bgGradient" x1="0%" y1="0%" x2="100%" y2="100%">
      <stop offset="0%" style="stop-color:#1e293b;stop-opacity:1" />
      <stop offset="100%" style="stop-color:#0f172a;stop-opacity:1" />
    </linearGradient>
    <linearGradient id="sunGradient" x1="0%" y1="0%" x2="100%" y2="100%">
      <stop offset="0%" style="stop-color:#fbbf24;stop-opacity:1" />
      <stop offset="100%" style="stop-color:#f59e0b;stop-opacity:1" />
    </linearGradient>
  </defs>
  <rect width="512" height="512" rx="128" fill="url(#bgGradient)"/>
  <circle cx="256" cy="256" r="120" fill="url(#sunGradient)"/>
  <circle cx="256" cy="256" r="80" fill="#fbbf24"/>
  <path d="M256 120 L264 144 L256 168 L248 144 Z" fill="#fbbf24"/>
  <path d="M256 344 L264 368 L256 392 L248 368 Z" fill="#fbbf24"/>
  <path d="M120 256 L144 264 L168 256 L144 248 Z" fill="#fbbf24"/>
  <path d="M344 256 L368 264 L392 256 L368 248 Z" fill="#fbbf24"/>
  <path d="M160 160 L177 177 L194 160 L177 143 Z" fill="#fbbf24"/>
  <path d="M318 352 L335 369 L352 352 L335 335 Z" fill="#fbbf24"/>
  <path d="M160 352 L177 369 L194 352 L177 335 Z" fill="#fbbf24"/>
  <path d="M318 160 L335 177 L352 160 L335 143 Z" fill="#fbbf24"/>
</svg>